<mxfile host="app.diagrams.net" modified="2021-09-27T08:28:07.927Z" agent="5.0 (Windows NT 10.0; Win64; x64) AppleWebKit/537.36 (KHTML, like Gecko) Chrome/94.0.4606.61 Safari/537.36 Edg/94.0.992.31" etag="i2hTeZiDhn4MXGZlpaPn" version="15.3.4" type="github">
  <diagram id="-MccKQFfYnomR9Ya1-W3" name="Page-1">
    <mxGraphModel dx="1102" dy="769" grid="1" gridSize="10" guides="1" tooltips="1" connect="1" arrows="1" fold="1" page="1" pageScale="1" pageWidth="827" pageHeight="1169" math="0" shadow="0">
      <root>
        <mxCell id="0" />
        <mxCell id="1" parent="0" />
      </root>
    </mxGraphModel>
  </diagram>
</mxfile>
